<svg xmlns="http://www.w3.org/2000/svg" xmlns:xlink="http://www.w3.org/1999/xlink" width="24" height="24" viewBox="0 0 24 24">
    <defs>
        <path id="prefix__a" d="M18 15v1c0 1.1-.9 2-2 2H2c-1.11 0-2-.9-2-2V2C0 .9.89 0 2 0h14c1.1 0 2 .9 2 2v1H9c-1.11 0-2 .9-2 2v8c0 1.1.89 2 2 2h9zm-9-2h10V5H9v8zm4-2.5c-.83 0-1.5-.67-1.5-1.5s.67-1.5 1.5-1.5 1.5.67 1.5 1.5-.67 1.5-1.5 1.5z"/>
    </defs>
    <g fill="none" fill-rule="evenodd" opacity=".1" transform="translate(3 3)">
        <mask id="prefix__b" fill="#fff">
            <use xlink:href="#prefix__a"/>
        </mask>
        <g fill="#000" mask="url(#prefix__b)">
            <path d="M0 0H50V50H0z" transform="translate(-16 -16)"/>
        </g>
    </g>
</svg>
